<svg width="80" height="81" viewBox="0 0 80 81" fill="none" xmlns="http://www.w3.org/2000/svg">
<path d="M40 0C17.92 0 0 18.144 0 40.5C0 62.856 17.92 81 40 81C62.08 81 80 62.856 80 40.5C80 18.144 62.08 0 40 0ZM40 72.9C22.36 72.9 8 58.3605 8 40.5C8 22.6395 22.36 8.1 40 8.1C57.64 8.1 72 22.6395 72 40.5C72 58.3605 57.64 72.9 40 72.9ZM18 62.775L48.04 48.6405L62 18.225L31.96 32.3595L18 62.775ZM40 36.045C42.44 36.045 44.4 38.0295 44.4 40.5C44.4 42.9705 42.44 44.955 40 44.955C37.56 44.955 35.6 42.9705 35.6 40.5C35.6 38.0295 37.56 36.045 40 36.045Z" fill="url(#paint0_linear_721_435)"/>
<defs>
<linearGradient id="paint0_linear_721_435" x1="12.1014" y1="67.7109" x2="69.6577" y2="12.1973" gradientUnits="userSpaceOnUse">
<stop stop-color="#491779"/>
<stop offset="1" stop-color="#6A21AE"/>
</linearGradient>
</defs>
</svg>
