<svg width="64" height="83" viewBox="0 0 64 83" fill="none" xmlns="http://www.w3.org/2000/svg">
<path d="M18.2857 78.85C18.2857 81.1325 20.3429 83 22.8571 83H41.1429C43.6571 83 45.7143 81.1325 45.7143 78.85V74.7H18.2857V78.85ZM32 0C14.3543 0 0 13.031 0 29.05C0 38.927 5.44 47.6005 13.7143 52.871V62.25C13.7143 64.5325 15.7714 66.4 18.2857 66.4H45.7143C48.2286 66.4 50.2857 64.5325 50.2857 62.25V52.871C58.56 47.6005 64 38.927 64 29.05C64 13.031 49.6457 0 32 0ZM45.0286 46.065L41.1429 48.555V58.1H22.8571V48.555L18.9714 46.065C12.8 42.164 9.14286 35.8145 9.14286 29.05C9.14286 17.596 19.3829 8.3 32 8.3C44.6171 8.3 54.8571 17.596 54.8571 29.05C54.8571 35.8145 51.2 42.164 45.0286 46.065Z" fill="url(#paint0_linear_719_417)"/>
<defs>
<linearGradient id="paint0_linear_719_417" x1="32" y1="0" x2="32" y2="83" gradientUnits="userSpaceOnUse">
<stop stop-color="#4A177B"/>
<stop offset="1" stop-color="#7638B1"/>
</linearGradient>
</defs>
</svg>
