<svg width="82" height="77" viewBox="0 0 82 77" fill="none" xmlns="http://www.w3.org/2000/svg">
<path d="M74.5455 12.243L32.0173 56.21L16.2136 39.886L21.4691 34.4575L32.0173 45.353L69.29 6.853L74.5455 12.243ZM37.2727 69.3C20.8355 69.3 7.45455 55.4785 7.45455 38.5C7.45455 21.5215 20.8355 7.7 37.2727 7.7C43.1245 7.7 48.6036 9.471 53.2255 12.5125L58.63 6.93C52.5545 2.5795 45.2118 0 37.2727 0C16.6982 0 0 17.248 0 38.5C0 59.752 16.6982 77 37.2727 77C43.7209 77 49.7964 75.306 55.0891 72.303L49.4982 66.528C45.7709 68.299 41.6336 69.3 37.2727 69.3ZM63.3636 50.05H52.1818V57.75H63.3636V69.3H70.8182V57.75H82V50.05H70.8182V38.5H63.3636V50.05Z" fill="url(#paint0_linear_719_414)"/>
<defs>
<linearGradient id="paint0_linear_719_414" x1="10.0419" y1="77" x2="77.6539" y2="14.0063" gradientUnits="userSpaceOnUse">
<stop stop-color="#4C187D"/>
<stop offset="1" stop-color="#7B3CB7"/>
</linearGradient>
</defs>
</svg>
